<svg xmlns="http://www.w3.org/2000/svg" xmlns:xlink="http://www.w3.org/1999/xlink" viewBox="0 0 46 46">
  <defs>
    <filter id="shadow" filterUnits="objectBoundingBox" x="-50%" y="-50%" width="200%" height="200%">
      <feOffset dy="1" in="SourceAlpha" result="shadowOffsetOuter1" />
      <feGaussianBlur stdDeviation="1" in="shadowOffsetOuter1" result="shadowBlurOuter1" />
      <feColorMatrix
        values="0 0 0 0 0   0 0 0 0 0   0 0 0 0 0   0 0 0 0.2 0"
        in="shadowBlurOuter1"
      />
    </filter>
    <path
      id="googleShape"
      d="M37.6 20.5h-1.7v-.1H23v5.1h8.3c-1.2 4.4-5.5 7.6-10.3 7.6-6.1 0-11.1-5-11.1-11.1s5-11.1 11.1-11.1c2.8 0 5.3 1 7.3 2.6l3.6-3.6C29 7 25.4 5.5 21 5.5 11.8 5.5 4 13.3 4 22.5S11.8 39.5 21 39.5c9.2 0 17-7.8 17-17 0-1.2-.1-2.3-.4-3z"
    />
  </defs>
  <g fill="none" fill-rule="evenodd">
    <use fill="#000" filter="url(#shadow)" xlink:href="#googleShape" />
    <use fill="#FFF" xlink:href="#googleShape" />
    <path
      fill="#FBBC05"
      d="M12.6 27.2l-2 1.5C10 26 9.5 24 9.5 22.5c0-1.5.5-3.5 1.1-5.2l2.1 1.6c-.4 1.1-.7 2.3-.7 3.6 0 1.4.3 2.7.6 3.8z"
    />
    <path
      fill="#EA4335"
      d="M23 11c1.9 0 3.3.6 4.4 1.1l1.3.8 3.4-3.4-1.2-.9c-2-1.4-4.4-2.2-7.9-2.2-5.3 0-9.9 2.9-12.3 7.1l2.2 1.7c1.8-3 5.1-4.2 8.1-4.2z"
    />
    <path
      fill="#34A853"
      d="M23 34c-3.4 0-6.3-1.7-8.1-4.2l-2.2 1.7c2.4 4.3 7 7.2 12.3 7.2 5.9 0 10.9-3.7 12.7-8.9l-4.1-1.6C31.4 31.4 27.6 34 23 34z"
    />
    <path
      fill="#4285F4"
      d="M37.6 20.5h-1.7v-.1H23v5.1h8.3c-.9 2.9-3.2 4.9-8.3 4.9-3.3 0-6.1-1.7-7.7-4.3l-2.2 1.7c2.3 3.9 6.5 6.6 11.5 6.6 6.6 0 11.8-4.6 11.8-11.6 0-1-.1-2-.3-2.9z"
    />
  </g>
</svg>
