<?xml version="1.0" encoding="UTF-8" standalone="no"?>
<svg width="20px" height="20px" viewBox="0 0 46 46" version="1.1" xmlns="http://www.w3.org/2000/svg" xmlns:xlink="http://www.w3.org/1999/xlink">
    <g stroke="none" stroke-width="1" fill="none" fill-rule="evenodd">
        <path d="M31.64,23.205c0,-0.639 -0.057,-1.252 -0.164,-1.841l-13.476,0l0,3.481l7.704,0c-0.332,1.789 -1.341,3.307 -2.859,4.321l0,3.595l4.629,0c2.709,-2.491 4.166,-6.16 4.166,-9.556Z" fill="#4285F4"/>
        <path d="M17.995,31.968c3.869,0 7.116,-1.285 9.485,-3.482l-4.629,-3.595c-1.283,0.859 -2.925,1.367 -4.856,1.367c-3.735,0 -6.899,-2.522 -8.027,-5.912l-4.784,0l0,3.711c2.361,4.687 7.189,7.911 12.811,7.911Z" fill="#34A853"/>
        <path d="M9.968,20.346c-0.287,-0.859 -0.45,-1.777 -0.45,-2.723c0,-0.946 0.163,-1.864 0.45,-2.723l0,-3.711l-4.784,0c-0.972,1.936 -1.526,4.119 -1.526,6.434c0,2.315 0.554,4.498 1.526,6.434l4.784,-3.711Z" fill="#FBBC05"/>
        <path d="M17.995,9.988c2.105,0 3.994,0.723 5.484,2.145l4.109,-4.109c-2.486,-2.315 -5.733,-3.735 -9.593,-3.735c-5.622,0 -10.45,3.224 -12.811,7.911l4.784,3.711c1.128,-3.39 4.292,-5.912 8.027,-5.912Z" fill="#EA4335"/>
    </g>
</svg> 